<svg width="515" height="134" viewBox="0 0 515 134" fill="none" xmlns="http://www.w3.org/2000/svg">
<path d="M13.776 111.2H14.88V128H13.872V112.856L3.696 128H2.592V111.2H3.6V126.32L13.776 111.2ZM27.4929 116H28.4769V128H27.4929V122.192H20.5809V128H19.5729V116.024H20.5809V121.208H27.4929V116ZM35.7459 116H42.7059V127.016H44.0019V130.112H42.9939V127.976H32.7459V130.112H31.7379V127.016H32.3859C33.1219 126.952 33.7299 126.6 34.2099 125.96C34.6899 125.304 34.9779 124.472 35.0739 123.464L35.7459 116ZM41.7219 127.016V116.984H36.6819L36.0819 123.464C35.9219 125.128 35.4179 126.312 34.5699 127.016H41.7219ZM55.5951 116H56.6511V128H55.6431V117.584L48.7071 128H47.6511V116H48.6591V126.392L55.5951 116ZM60.8464 115.808H64.8544C65.9104 115.808 66.7744 116.104 67.4464 116.696C68.1184 117.272 68.4544 118.04 68.4544 119C68.4544 119.656 68.3024 120.224 67.9984 120.704C67.6944 121.184 67.2624 121.544 66.7024 121.784C67.1664 121.944 67.5664 122.176 67.9024 122.48C68.2384 122.768 68.4944 123.12 68.6704 123.536C68.8624 123.952 68.9584 124.4 68.9584 124.88C68.9584 125.872 68.6064 126.672 67.9024 127.28C67.1984 127.888 66.2864 128.192 65.1664 128.192H60.8464V115.808ZM61.8544 121.352H64.8304C65.5984 121.352 66.2304 121.152 66.7264 120.752C67.2224 120.336 67.4704 119.76 67.4704 119.024C67.4704 118.32 67.2144 117.776 66.7024 117.392C66.2064 116.992 65.5824 116.792 64.8304 116.792H61.8544V121.352ZM61.8544 127.208H65.0944C65.9584 127.208 66.6464 126.992 67.1584 126.56C67.6864 126.112 67.9504 125.528 67.9504 124.808C67.9504 124.088 67.6784 123.504 67.1344 123.056C66.5904 122.592 65.9184 122.352 65.1184 122.336H61.8544V127.208ZM80.9076 116H81.9636V128H80.9556V117.584L74.0196 128H72.9636V116H73.9716V126.392L80.9076 116ZM89.2069 116H96.1669V127.016H97.4629V130.112H96.4549V127.976H86.2069V130.112H85.1989V127.016H85.8469C86.5829 126.952 87.1909 126.6 87.6709 125.96C88.1509 125.304 88.4389 124.472 88.5349 123.464L89.2069 116ZM95.1829 127.016V116.984H90.1429L89.5429 123.464C89.3829 125.128 88.8789 126.312 88.0309 127.016H95.1829ZM110.088 116H111.096V127.064C111.032 128.872 110.6 130.152 109.8 130.904C109.016 131.656 107.736 132.024 105.96 132.008C104.952 132.008 104.104 131.92 103.416 131.744C102.728 131.568 102.08 131.272 101.472 130.856L101.712 130.04C102.304 130.44 102.92 130.712 103.56 130.856C104.2 131.016 105 131.096 105.96 131.096C107.432 131.096 108.472 130.816 109.08 130.256C109.688 129.712 110.032 128.712 110.112 127.256V126.68C108.944 127.56 107.632 128 106.176 128C104.256 128 102.888 127.488 102.072 126.464C101.256 125.424 100.84 123.84 100.824 121.712V116H101.832V121.712C101.832 123.552 102.16 124.904 102.816 125.768C103.472 126.616 104.632 127.04 106.296 127.04C106.936 127.04 107.6 126.92 108.288 126.68C108.976 126.44 109.576 126.144 110.088 125.792V116ZM115.233 117.8L114.801 117.032C115.857 116.2 117.369 115.784 119.337 115.784C120.921 115.784 122.137 116.232 122.985 117.128C123.849 118.024 124.289 119.304 124.305 120.968V128H123.393V126.608C122.913 127.088 122.257 127.472 121.425 127.76C120.593 128.048 119.785 128.192 119.001 128.192C118.009 128.192 117.153 128.032 116.433 127.712C115.713 127.376 115.161 126.888 114.777 126.248C114.409 125.592 114.225 124.808 114.225 123.896C114.225 122.6 114.657 121.576 115.521 120.824C116.401 120.056 117.649 119.68 119.265 119.696C120.801 119.696 122.145 120.04 123.297 120.728C123.281 120.072 123.177 119.496 122.985 119C122.809 118.488 122.553 118.072 122.217 117.752C121.881 117.416 121.465 117.168 120.969 117.008C120.473 116.832 119.905 116.744 119.265 116.744C117.505 116.744 116.161 117.096 115.233 117.8ZM123.297 125.672V121.664C122.385 120.976 121.049 120.632 119.289 120.632C117.945 120.632 116.929 120.928 116.241 121.52C115.569 122.096 115.233 122.888 115.233 123.896C115.233 124.968 115.553 125.792 116.193 126.368C116.849 126.928 117.817 127.208 119.097 127.208C119.785 127.208 120.545 127.064 121.377 126.776C122.209 126.488 122.849 126.12 123.297 125.672ZM131.041 116H137.665V128H136.681V116.96H131.713L131.113 123.44C130.969 124.864 130.545 126 129.841 126.848C129.153 127.696 128.249 128.12 127.129 128.12V127.256C127.897 127.256 128.553 126.904 129.097 126.2C129.657 125.48 129.985 124.56 130.081 123.44L130.777 116H131.041ZM142.901 121.424H146.309C147.333 121.424 148.173 121.736 148.829 122.36C149.485 122.968 149.813 123.76 149.813 124.736C149.813 125.712 149.485 126.512 148.829 127.136C148.173 127.744 147.333 128.048 146.309 128.048H141.893V116H142.901V121.424ZM142.901 127.064H146.285C147.005 127.064 147.605 126.848 148.085 126.416C148.581 125.984 148.829 125.424 148.829 124.736C148.829 124.048 148.581 123.488 148.085 123.056C147.605 122.624 147.005 122.408 146.285 122.408H142.901V127.064ZM161.673 116H162.657V128H161.673V122.192H154.761V128H153.753V116.024H154.761V121.208H161.673V116ZM172.782 115.808C173.918 115.808 174.958 116.088 175.902 116.648C176.846 117.192 177.598 117.944 178.158 118.904C178.718 119.848 178.998 120.88 178.998 122C178.998 123.712 178.39 125.176 177.174 126.392C175.958 127.592 174.494 128.192 172.782 128.192C171.086 128.192 169.63 127.592 168.414 126.392C167.198 125.176 166.59 123.712 166.59 122C166.59 120.288 167.198 118.832 168.414 117.632C169.63 116.416 171.086 115.808 172.782 115.808ZM176.478 118.328C175.47 117.304 174.238 116.792 172.782 116.792C171.342 116.792 170.118 117.304 169.11 118.328C168.102 119.336 167.598 120.56 167.598 122C167.598 123.44 168.102 124.672 169.11 125.696C170.118 126.704 171.342 127.208 172.782 127.208C174.238 127.208 175.47 126.704 176.478 125.696C177.486 124.672 177.99 123.44 177.99 122C177.99 120.56 177.486 119.336 176.478 118.328ZM190.996 126.152L191.692 126.848C190.572 127.728 189.292 128.168 187.852 128.168C186.156 128.168 184.7 127.568 183.484 126.368C182.268 125.152 181.66 123.688 181.66 121.976C181.66 120.264 182.268 118.808 183.484 117.608C184.7 116.392 186.156 115.784 187.852 115.784C189.308 115.784 190.604 116.24 191.74 117.152L191.02 117.848C190.108 117.128 189.052 116.768 187.852 116.768C186.908 116.768 186.036 117 185.236 117.464C184.436 117.928 183.804 118.56 183.34 119.36C182.876 120.16 182.644 121.032 182.644 121.976C182.644 123.432 183.148 124.672 184.156 125.696C185.18 126.704 186.412 127.208 187.852 127.208C189.052 127.208 190.1 126.856 190.996 126.152ZM202.981 116V116.984H199.285V128H198.301V116.984H194.605V116H202.981ZM207.261 121.424H210.669C211.693 121.424 212.533 121.736 213.189 122.36C213.845 122.968 214.173 123.76 214.173 124.736C214.173 125.712 213.845 126.512 213.189 127.136C212.533 127.744 211.693 128.048 210.669 128.048H206.253V116H207.261V121.424ZM207.261 127.064H210.645C211.365 127.064 211.965 126.848 212.445 126.416C212.941 125.984 213.189 125.424 213.189 124.736C213.189 124.048 212.941 123.488 212.445 123.056C211.965 122.624 211.365 122.408 210.645 122.408H207.261V127.064ZM217.944 128.24C217.816 128.24 217.688 128.208 217.56 128.144C217.448 128.08 217.36 127.992 217.296 127.88C217.232 127.768 217.2 127.64 217.2 127.496C217.2 127.288 217.272 127.112 217.416 126.968C217.56 126.824 217.736 126.752 217.944 126.752C218.152 126.752 218.328 126.824 218.472 126.968C218.632 127.112 218.712 127.288 218.712 127.496C218.712 127.704 218.632 127.88 218.472 128.024C218.328 128.168 218.152 128.24 217.944 128.24ZM232.008 113.576L231.312 112.88C232.88 111.616 234.672 110.984 236.688 110.984C238.256 110.984 239.704 111.368 241.032 112.136C242.36 112.904 243.408 113.952 244.176 115.28C244.944 116.592 245.328 118.032 245.328 119.6C245.328 121.168 244.944 122.616 244.176 123.944C243.408 125.256 242.36 126.296 241.032 127.064C239.704 127.832 238.256 128.216 236.688 128.216C234.704 128.216 232.928 127.6 231.36 126.368L232.152 125.72C233.496 126.728 235.008 127.232 236.688 127.232C238.72 127.232 240.464 126.544 241.92 125.168C243.376 123.776 244.16 122.08 244.272 120.08H235.416V119.096H244.272C244.144 117.096 243.352 115.416 241.896 114.056C240.456 112.68 238.72 111.992 236.688 111.992C234.944 111.992 233.384 112.52 232.008 113.576ZM252.705 116H259.329V128H258.345V116.96H253.377L252.777 123.44C252.633 124.864 252.209 126 251.505 126.848C250.817 127.696 249.913 128.12 248.793 128.12V127.256C249.561 127.256 250.217 126.904 250.761 126.2C251.321 125.48 251.649 124.56 251.745 123.44L252.441 116H252.705ZM273.373 125.96L274.069 126.656C273.029 127.68 271.549 128.192 269.629 128.192C267.901 128.192 266.405 127.6 265.141 126.416C263.893 125.232 263.269 123.76 263.269 122C263.269 120.288 263.869 118.832 265.069 117.632C266.285 116.416 267.749 115.808 269.461 115.808C271.333 115.808 272.821 116.456 273.925 117.752C274.757 118.712 275.109 119.672 274.981 120.632C274.853 121.512 274.333 122.032 273.421 122.192C273.245 122.224 273.061 122.24 272.869 122.24H264.373C264.373 123.632 264.885 124.816 265.909 125.792C266.933 126.752 268.165 127.232 269.605 127.232C271.253 127.232 272.509 126.808 273.373 125.96ZM264.397 121.304H272.677C273.221 121.304 273.589 121.112 273.781 120.728C273.973 120.328 273.965 119.872 273.757 119.36C273.517 118.672 273.013 118.072 272.245 117.56C271.493 117.032 270.565 116.768 269.461 116.768C268.565 116.768 267.741 116.976 266.989 117.392C266.237 117.792 265.629 118.336 265.165 119.024C264.717 119.712 264.461 120.472 264.397 121.304ZM286.208 116V116.984H279.8V128H278.792V116H286.208ZM290.123 117.8L289.691 117.032C290.747 116.2 292.259 115.784 294.227 115.784C295.811 115.784 297.027 116.232 297.875 117.128C298.739 118.024 299.179 119.304 299.195 120.968V128H298.283V126.608C297.803 127.088 297.147 127.472 296.315 127.76C295.483 128.048 294.675 128.192 293.891 128.192C292.899 128.192 292.043 128.032 291.323 127.712C290.603 127.376 290.051 126.888 289.667 126.248C289.299 125.592 289.115 124.808 289.115 123.896C289.115 122.6 289.547 121.576 290.411 120.824C291.291 120.056 292.539 119.68 294.155 119.696C295.691 119.696 297.035 120.04 298.187 120.728C298.171 120.072 298.067 119.496 297.875 119C297.699 118.488 297.443 118.072 297.107 117.752C296.771 117.416 296.355 117.168 295.859 117.008C295.363 116.832 294.795 116.744 294.155 116.744C292.395 116.744 291.051 117.096 290.123 117.8ZM298.187 125.672V121.664C297.275 120.976 295.939 120.632 294.179 120.632C292.835 120.632 291.819 120.928 291.131 121.52C290.459 122.096 290.123 122.888 290.123 123.896C290.123 124.968 290.443 125.792 291.083 126.368C291.739 126.928 292.707 127.208 293.987 127.208C294.675 127.208 295.435 127.064 296.267 126.776C297.099 126.488 297.739 126.12 298.187 125.672ZM310.899 116H311.883V128H310.899V122.192H303.987V128H302.979V116.024H303.987V121.208H310.899V116ZM323.52 116V116.984H319.824V128H318.84V116.984H315.144V116H323.52ZM334.712 116H335.696V128H334.712V122.192H327.8V128H326.792V116.024H327.8V121.208H334.712V116ZM345.821 115.808C346.957 115.808 347.997 116.088 348.941 116.648C349.885 117.192 350.637 117.944 351.197 118.904C351.757 119.848 352.037 120.88 352.037 122C352.037 123.712 351.429 125.176 350.213 126.392C348.997 127.592 347.533 128.192 345.821 128.192C344.125 128.192 342.669 127.592 341.453 126.392C340.237 125.176 339.629 123.712 339.629 122C339.629 120.288 340.237 118.832 341.453 117.632C342.669 116.416 344.125 115.808 345.821 115.808ZM349.517 118.328C348.509 117.304 347.277 116.792 345.821 116.792C344.381 116.792 343.157 117.304 342.149 118.328C341.141 119.336 340.637 120.56 340.637 122C340.637 123.44 341.141 124.672 342.149 125.696C343.157 126.704 344.381 127.208 345.821 127.208C347.277 127.208 348.509 126.704 349.517 125.696C350.525 124.672 351.029 123.44 351.029 122C351.029 120.56 350.525 119.336 349.517 118.328ZM364.035 126.152L364.731 126.848C363.611 127.728 362.331 128.168 360.891 128.168C359.195 128.168 357.739 127.568 356.523 126.368C355.307 125.152 354.699 123.688 354.699 121.976C354.699 120.264 355.307 118.808 356.523 117.608C357.739 116.392 359.195 115.784 360.891 115.784C362.347 115.784 363.643 116.24 364.779 117.152L364.059 117.848C363.147 117.128 362.091 116.768 360.891 116.768C359.947 116.768 359.075 117 358.275 117.464C357.475 117.928 356.843 118.56 356.379 119.36C355.915 120.16 355.683 121.032 355.683 121.976C355.683 123.432 356.187 124.672 357.195 125.696C358.219 126.704 359.451 127.208 360.891 127.208C362.091 127.208 363.139 126.856 364.035 126.152ZM376.02 116V116.984H372.324V128H371.34V116.984H367.644V116H376.02ZM380.3 121.424H383.708C384.732 121.424 385.572 121.736 386.228 122.36C386.884 122.968 387.212 123.76 387.212 124.736C387.212 125.712 386.884 126.512 386.228 127.136C385.572 127.744 384.732 128.048 383.708 128.048H379.292V116H380.3V121.424ZM380.3 127.064H383.684C384.404 127.064 385.004 126.848 385.484 126.416C385.98 125.984 386.228 125.424 386.228 124.736C386.228 124.048 385.98 123.488 385.484 123.056C385.004 122.624 384.404 122.408 383.684 122.408H380.3V127.064ZM390.983 128.24C390.855 128.24 390.727 128.208 390.599 128.144C390.487 128.08 390.399 127.992 390.335 127.88C390.271 127.768 390.239 127.64 390.239 127.496C390.239 127.288 390.311 127.112 390.455 126.968C390.599 126.824 390.775 126.752 390.983 126.752C391.191 126.752 391.367 126.824 391.511 126.968C391.671 127.112 391.751 127.288 391.751 127.496C391.751 127.704 391.671 127.88 391.511 128.024C391.367 128.168 391.191 128.24 390.983 128.24ZM417.695 127.016H420.311V130.904H419.327V128H405.647V111.2H406.655V127.016H416.687V111.2H417.695V127.016ZM434.155 125.96L434.851 126.656C433.811 127.68 432.331 128.192 430.411 128.192C428.683 128.192 427.187 127.6 425.923 126.416C424.675 125.232 424.051 123.76 424.051 122C424.051 120.288 424.651 118.832 425.851 117.632C427.067 116.416 428.531 115.808 430.243 115.808C432.115 115.808 433.603 116.456 434.707 117.752C435.539 118.712 435.891 119.672 435.763 120.632C435.635 121.512 435.115 122.032 434.203 122.192C434.027 122.224 433.843 122.24 433.651 122.24H425.155C425.155 123.632 425.667 124.816 426.691 125.792C427.715 126.752 428.947 127.232 430.387 127.232C432.035 127.232 433.291 126.808 434.155 125.96ZM425.179 121.304H433.459C434.003 121.304 434.371 121.112 434.563 120.728C434.755 120.328 434.747 119.872 434.539 119.36C434.299 118.672 433.795 118.072 433.027 117.56C432.275 117.032 431.347 116.768 430.243 116.768C429.347 116.768 428.523 116.976 427.771 117.392C427.019 117.792 426.411 118.336 425.947 119.024C425.499 119.712 425.243 120.472 425.179 121.304ZM447.493 116H448.477V128H447.493V122.192H440.581V128H439.573V116.024H440.581V121.208H447.493V116ZM460.618 116H461.602V128H460.618V122.192H453.706V128H452.698V116.024H453.706V121.208H460.618V116ZM471.727 115.808C472.863 115.808 473.903 116.088 474.847 116.648C475.791 117.192 476.543 117.944 477.103 118.904C477.663 119.848 477.943 120.88 477.943 122C477.943 123.712 477.335 125.176 476.119 126.392C474.903 127.592 473.439 128.192 471.727 128.192C470.031 128.192 468.575 127.592 467.359 126.392C466.143 125.176 465.535 123.712 465.535 122C465.535 120.288 466.143 118.832 467.359 117.632C468.575 116.416 470.031 115.808 471.727 115.808ZM475.423 118.328C474.415 117.304 473.183 116.792 471.727 116.792C470.287 116.792 469.063 117.304 468.055 118.328C467.047 119.336 466.543 120.56 466.543 122C466.543 123.44 467.047 124.672 468.055 125.696C469.063 126.704 470.287 127.208 471.727 127.208C473.183 127.208 474.415 126.704 475.423 125.696C476.431 124.672 476.935 123.44 476.935 122C476.935 120.56 476.431 119.336 475.423 118.328ZM489.941 126.152L490.637 126.848C489.517 127.728 488.237 128.168 486.797 128.168C485.101 128.168 483.645 127.568 482.429 126.368C481.213 125.152 480.605 123.688 480.605 121.976C480.605 120.264 481.213 118.808 482.429 117.608C483.645 116.392 485.101 115.784 486.797 115.784C488.253 115.784 489.549 116.24 490.685 117.152L489.965 117.848C489.053 117.128 487.997 116.768 486.797 116.768C485.853 116.768 484.981 117 484.181 117.464C483.381 117.928 482.749 118.56 482.285 119.36C481.821 120.16 481.589 121.032 481.589 121.976C481.589 123.432 482.093 124.672 483.101 125.696C484.125 126.704 485.357 127.208 486.797 127.208C487.997 127.208 489.045 126.856 489.941 126.152ZM501.926 116V116.984H498.23V128H497.246V116.984H493.55V116H501.926ZM506.206 121.424H509.614C510.638 121.424 511.478 121.736 512.134 122.36C512.79 122.968 513.118 123.76 513.118 124.736C513.118 125.712 512.79 126.512 512.134 127.136C511.478 127.744 510.638 128.048 509.614 128.048H505.198V116H506.206V121.424ZM506.206 127.064H509.59C510.31 127.064 510.91 126.848 511.39 126.416C511.886 125.984 512.134 125.424 512.134 124.736C512.134 124.048 511.886 123.488 511.39 123.056C510.91 122.624 510.31 122.408 509.59 122.408H506.206V127.064Z" fill="white"/>
<path d="M182.855 60.232C182.577 62.5188 181.774 64.7128 180.446 66.8137C179.118 68.9145 177.459 70.8688 175.471 72.6772C173.481 74.4859 171.231 76.1347 168.718 77.6237C166.205 79.1128 163.552 80.0849 160.908 81.1215C158.263 82.1581 155.664 82.5861 153.024 83.1434C148.446 84.1109 137.749 84.8441 135.663 80.0172C135.203 78.9539 135.064 77.6767 135.245 76.1875C135.64 72.9433 137.205 69.885 139.94 67.0133C142.675 64.1413 146.221 61.643 150.44 59.1169C160.438 53.1335 170.374 49.6366 181.222 46.2548C181.941 48.2761 182.408 50.1536 182.793 52.4935C183.178 54.833 183.199 57.4132 182.855 60.232ZM260.521 46.5526C260.98 46.734 261.551 46.8735 261.908 47.2225C262.187 47.4954 262.501 47.5458 262.766 47.4669C262.892 47.4901 263.01 47.4358 263.139 47.2715L265.414 44.3802C265.688 44.0328 264.32 43.789 263.592 43.9323L263.872 40.7777C263.967 39.7179 261.435 42.3274 261.039 42.9945L259.808 41.5064C259.693 41.3671 259.457 42.1774 259.361 42.5816C259.232 43.1262 258.785 44.532 258.832 45.297C258.696 45.6752 258.862 46.1547 259.361 46.2769L260.521 46.5526ZM334.871 56.0806C334.133 56.5735 333.115 57.0128 332.588 57.0457C331.753 57.0981 331.693 57.0124 332.114 56.4685C332.648 55.7747 336.931 52.7035 337.403 52.6738C338.347 52.6141 336.669 54.861 334.871 56.0806ZM207.112 57.6291C208.302 56.7512 209.741 56.018 210.247 56.0043C210.32 56.0001 210.375 55.9959 210.405 56.0295C210.804 56.3795 209.759 57.6229 208.533 58.2534C207.034 59.0261 206.995 59.046 206.376 58.7281C206.038 58.5711 206.244 58.2728 207.112 57.6291ZM224.4 57.6887C216.1 63.8681 211.081 65.4398 207.29 65.6477C204.55 65.7981 203.272 65.0623 203.359 63.3619C203.404 62.6805 203.642 61.7913 203.884 61.3657C204.293 60.6619 204.466 60.954 206.67 60.6548C207.991 60.4821 209.299 60.1502 210.695 58.9736C213.097 56.949 213.545 54.9932 211.758 54.2853C211.385 54.1301 210.942 54.0868 210.469 54.1168C207.143 54.344 201.837 58.747 200.849 62.5563C200.118 65.3322 201.775 67.1726 205.34 67.5371C210.017 68.0454 215.905 65.3189 224.894 58.4889L225.095 58.3371C219.603 65.8726 211.244 77.9422 209.86 80.348C209.496 80.9951 209.279 81.7405 209.364 82.0204C209.58 82.6315 210.468 82.5935 211.32 81.933C211.666 81.6615 215.076 77.6633 218.864 73.053C226.983 63.1915 227.235 62.9437 227.828 63.4416C228.727 64.1879 231.587 63.3297 234.83 61.3404C235.524 60.9047 236.893 60.4118 237.873 60.2211C243.454 59.134 251.706 54.2025 256.729 51.1733C255.548 52.9965 253.113 57.2388 252.959 58.2944C252.83 59.1768 253.05 59.6445 253.873 60.2891C254.746 60.9653 255.268 61.0928 256.757 60.9988C258.997 60.822 260.861 60.1336 265.781 57.6285C268.51 56.233 271.807 54.3131 274.652 52.4499C273.028 54.6904 271.524 57.1125 271.15 58.3252C270.889 59.1269 270.963 59.6036 271.363 59.953C271.684 60.2188 272.283 60.4309 272.682 60.4053C273.463 60.3561 277.894 57.3827 281.202 54.694C284.508 52.0231 290.281 48.608 290.778 49.0227C290.874 49.1063 290.355 50.3161 289.631 51.7004C287.674 55.4814 287.308 56.7376 287.869 57.8421C290.144 62.319 302.741 52.3472 305.773 50.3624C305.335 51.2988 303.827 52.9559 303.33 54.4146C302.991 55.4066 303.418 56.4133 303.798 56.6299C305.607 57.6596 309.383 56.0998 314.934 51.9848L317.798 49.8768L317.535 51.6778C317.295 53.3169 317.373 53.5891 318.421 54.4768C320.352 56.1129 322.904 55.071 328.139 52.1133C331.006 50.4926 335.538 46.3484 338.052 44.091C338.914 43.3166 339.689 44.054 339.723 43.8199C339.897 42.6315 339.515 42.7581 337.257 44.2921C335.991 46.1618 321.446 55.7813 320.049 52.9467C319.588 52.0103 320.288 50.0771 322.1 47.4115C323.336 45.6022 323.514 45.127 323.172 44.7563C322.579 44.1337 322.096 44.2352 320.722 45.2676L319.547 46.1625L319.131 45.0644C318.649 43.8102 317.576 43.2709 316.042 43.4213C314.856 43.5316 313.373 44.0715 311.703 45.0334C309.984 46.0181 308.364 47.3151 307.004 48.6908C298.688 54.5441 292.438 57.9269 290.532 57.4787C289.801 57.3099 290.301 55.2447 291.728 52.6204C293.335 49.6289 293.632 48.0934 292.707 47.4023C291.021 46.1346 286.678 48.264 278.616 54.2858C275.183 56.8396 273.812 57.7294 274.093 57.1581C274.596 56.1808 277.835 51.7478 279.48 49.7348C280.634 48.3597 280.671 48.2321 280.143 47.784C279.728 47.4174 279.409 47.3839 278.902 47.6482C278.629 47.7961 278.258 48.1162 277.826 48.5561C276.957 48.8862 275.664 49.625 273.852 50.8034C266.132 55.8407 259.577 58.9474 257.197 59.0973C254.636 59.2593 255.11 57.3731 258.921 52.3511C260.948 49.6897 261.289 49.0793 260.929 48.7097C260.65 48.4059 260.365 48.2633 260.035 48.3018C259.788 48.3359 259.508 48.4769 259.171 48.7417C258.65 48.998 257.906 49.4874 256.766 50.2874C254.171 52.1091 251.846 53.2931 249.855 54.2817C247.277 55.5612 245.119 56.459 242.249 57.2506L239.399 58.0372L241.19 56.1223C245.476 51.5518 246 47.9679 242.313 48.2001C239.315 48.3894 233.694 52.7405 227.808 59.3924C226.32 61.0745 225.041 62.4397 224.968 62.4441C224.877 62.4504 225.543 61.4623 226.441 60.2461C231.968 52.7245 234.561 48.9031 234.421 48.5018C234.347 48.2743 234.007 48.1348 233.569 48.1805C233.496 48.1858 233.441 48.1889 233.369 48.1933C232.715 48.3152 231.671 49.488 228.077 54.3031C227.12 55.7164 225.662 56.801 224.4 57.6887ZM234.012 59.0549C233.522 59.0857 232.364 59.3728 231.455 59.6801L229.77 60.2498L230.327 59.5194C232.461 56.7441 238.629 51.609 240.94 50.446C241.969 49.9353 242.351 49.7861 242.391 50.4973C242.472 52.5264 235.866 58.938 234.012 59.0549ZM341.075 48.7313C340.18 48.9692 340.083 48.9897 339.877 46.9509C339.653 44.9129 340.178 43.5417 341.437 42.802C342.539 42.1614 342.636 41.4948 341.649 41.111C341.444 41.0352 341.234 40.9945 340.995 41.0277C339.957 41.111 338.699 42.0825 337.897 43.5071C337.217 44.7094 337.174 45.1226 337.447 47.5675L337.753 50.2787L336.755 50.8233C334.835 51.8898 331.572 54.1473 330.664 55.0614C329.466 56.2434 329.155 58.1182 330.068 58.6495C331.063 59.2292 333.297 58.9636 335.375 58.0476C337.705 57.0086 339.622 54.8535 340.307 52.5083L340.79 50.8007C342.681 49.9943 359.682 43.0858 359.999 42.1494C360.179 41.6135 342.729 48.2906 341.075 48.7313ZM314.307 50.1151C312.72 51.2501 310.314 52.8112 308.955 53.6105C305.908 55.3728 305.225 55.4874 305.752 54.0978C306.968 50.9527 313.653 45.4815 316.002 45.4225C316.238 45.4073 316.445 45.4658 316.572 45.5826C316.748 45.7324 316.965 46.3431 317.039 46.9449C317.187 48.0243 317.104 48.1008 314.307 50.1151ZM224.921 23.3401C226.97 20.7351 227.189 19.7053 225.678 19.861C225.114 19.9236 224.141 20.8757 222.275 23.169C220.132 25.7889 215.229 31.992 211.594 36.6703C211.156 36.743 210.687 36.8305 210.185 36.9411C208.258 37.3665 205.775 37.6358 203.211 38.2212C200.647 38.8065 197.782 39.6322 194.683 40.4304C191.586 41.2276 188.44 42.0311 185.047 43.041C184.363 41.1799 183.825 39.8353 183.094 38.1331C182.363 36.4316 181.688 34.8228 181.069 33.3069C180.45 31.7912 179.968 30.3553 179.624 28.9987C179.28 27.6427 179.179 26.3794 179.322 25.2093C179.775 21.4864 181.175 18.136 183.521 15.1575C185.866 12.1796 188.843 10.0764 192.177 8.00256C195.51 5.92902 198.738 4.65007 202.57 3.53456C206.404 2.41874 209.327 1.4198 212.716 1.6728C224.491 2.55487 213.42 14.1758 206.908 17.5896C204.868 18.6585 202.238 19.7667 200.838 20.5156C197.282 22.4168 198.788 24.6737 203.811 22.8742C205.562 22.2469 207.955 21.2874 210.418 19.4253C213.563 17.0469 216.578 14.2392 218.764 10.9688C219.813 9.40016 220.444 7.73804 220.657 5.98301C220.884 4.12124 220.352 2.65897 219.061 1.59505C217.77 0.531438 215.919 0 213.507 0C211.952 0 209.967 0.238985 207.55 0.717479C205.133 1.19639 202.568 1.90121 199.856 2.83193C197.143 3.76266 194.397 4.95948 191.619 6.42164C188.842 7.88422 186.29 9.5861 183.963 11.5277C181.636 13.469 179.679 15.6759 178.091 18.149C176.503 20.6221 175.525 23.3748 175.156 26.4061C174.968 27.9484 175.024 29.464 175.326 30.9536C175.627 32.4429 176.075 33.9315 176.671 35.421C177.267 36.9103 177.927 38.4262 178.65 39.9682C179.373 41.5103 179.959 42.8806 180.608 44.5828C176.928 45.7526 173.31 47.2815 169.551 48.664C165.791 50.0468 162.164 51.5497 158.67 53.1715C155.176 54.7939 151.884 56.5222 148.793 58.3573C145.702 60.1924 142.959 62.1333 140.566 64.1807C138.173 66.2284 136.234 68.3958 134.749 70.6829C133.265 72.9697 132.37 75.3629 132.066 77.863C131.891 79.2989 132.064 80.522 132.584 81.5325C133.104 82.5431 133.913 83.3807 135.011 84.0456C136.109 84.7107 137.443 85.2027 139.012 85.5216C140.582 85.8407 142.304 86 144.18 86C146.807 86 149.656 85.7076 152.729 85.123C155.802 84.5377 158.894 83.6867 162.005 82.5697C165.115 81.4528 168.122 80.0967 171.023 78.501C173.924 76.9056 176.541 75.1106 178.875 73.1165C181.208 71.1218 183.15 68.9276 184.701 66.5343C186.252 64.1413 187.192 61.5879 187.523 58.8758C187.834 56.3232 187.785 53.8632 187.377 51.496C186.968 49.1294 186.492 46.9974 185.746 44.7637C191.247 43.168 196.464 41.5773 201.601 40.3274C203.253 39.9252 204.853 39.5438 206.401 39.1831C207.551 38.9844 208.898 38.7702 210.136 38.5526C209.278 39.6646 208.553 40.6145 208.038 41.3039C206.698 43.0822 204.214 46.452 202.49 48.7925C200.785 51.1166 197.216 55.9839 194.569 59.6033C191.246 64.1164 189.525 65.9449 187.529 69.1349C180.825 79.8434 191.635 81.1149 195.024 75.1287C195.956 73.4837 195.727 72.2908 195.696 72.0297C195.638 71.5389 194.815 73.3208 193.461 74.3675C188.658 78.0798 186.875 74.9365 189.19 71.4131C191.702 67.5887 195.666 61.8794 208.219 45.0478C209.543 43.2724 211.282 40.9298 212.081 39.8686L213.539 37.9142C225.887 35.5839 240.79 32.9456 240.79 32.9456C232.68 33.6658 223.852 34.8092 215.415 36.1489C215.354 36.1427 215.288 36.1395 215.216 36.1395C215.039 36.1395 214.916 36.1489 214.846 36.1668C226.227 20.9514 217.732 32.676 224.921 23.3401Z" fill="url(#paint0_linear_193_3)"/>
<defs>
<linearGradient id="paint0_linear_193_3" x1="132" y1="4.77635e-08" x2="132" y2="86" gradientUnits="userSpaceOnUse">
<stop stop-color="white"/>
<stop offset="1" stop-color="#868789"/>
</linearGradient>
</defs>
</svg>
