<?xml version="1.0" encoding="UTF-8" standalone="no"?>
<svg
   version="1.1"
   width="850.39368pt"
   height="510.23621pt"
   id="svg252"
   viewBox="0 0 850.39368 510.23621"
   sodipodi:docname="брендбук.cdr.svg"
   xmlns:inkscape="http://www.inkscape.org/namespaces/inkscape"
   xmlns:sodipodi="http://sodipodi.sourceforge.net/DTD/sodipodi-0.dtd"
   xmlns:xlink="http://www.w3.org/1999/xlink"
   xmlns="http://www.w3.org/2000/svg"
   xmlns:svg="http://www.w3.org/2000/svg">
  <sodipodi:namedview
     id="namedview254"
     pagecolor="#ffffff"
     bordercolor="#000000"
     borderopacity="0.25"
     inkscape:showpageshadow="2"
     inkscape:pageopacity="0.0"
     inkscape:pagecheckerboard="0"
     inkscape:deskcolor="#d1d1d1"
     showgrid="false"
     inkscape:document-units="pt" />
  <defs
     id="defs242">
    <linearGradient
       id="grad1">
      <stop
         offset="0%"
         stop-color="#ffffff"
         stop-opacity="1.0000"
         id="stop236" />
      <stop
         offset="100%"
         stop-color="#868789"
         stop-opacity="1.0000"
         id="stop238" />
    </linearGradient>
    <linearGradient
       xlink:href="#grad1"
       id="grad2"
       x1="195.50346"
       y1="347.12717"
       x2="195.50346"
       y2="480.43393"
       gradientTransform="scale(1.6219183,0.61655387)"
       gradientUnits="userSpaceOnUse" />
  </defs>
  <path
     d="m 365.3169,271.5868 c -0.2641,2.1855 -1.0255,4.2823 -2.2847,6.2901 -1.2591,2.0078 -2.8324,3.8755 -4.7182,5.6038 -1.8865,1.7286 -4.0207,3.3044 -6.4041,4.7274 -2.3825,1.4232 -4.8982,2.3522 -7.4055,3.3429 -2.5081,0.9907 -4.9734,1.3997 -7.4767,1.9323 -4.3415,0.9247 -14.4853,1.6254 -16.4639,-2.9877 -0.4359,-1.0162 -0.568,-2.2368 -0.396,-3.6601 0.3748,-3.1005 1.8584,-6.0233 4.4519,-8.7678 2.5939,-2.7448 5.9564,-5.1324 9.9581,-7.5467 9.481,-5.7183 18.9034,-9.0604 29.1903,-12.2924 0.6817,1.9318 1.1248,3.7261 1.4896,5.9624 0.3648,2.2359 0.3847,4.7018 0.0592,7.3958 z m 73.6507,-13.0736 c 0.4354,0.1734 0.9765,0.3067 1.3152,0.6403 0.2639,0.2608 0.5624,0.309 0.813,0.2336 0.1202,0.0221 0.2316,-0.0298 0.3541,-0.1868 l 2.1574,-2.7632 c 0.2594,-0.332 -1.0372,-0.565 -1.728,-0.4281 l 0.2659,-3.0149 c 0.0901,-1.0128 -2.3111,1.4811 -2.687,2.1186 l -1.1673,-1.4221 c -0.1088,-0.1332 -0.3325,0.6412 -0.4235,1.0275 -0.1227,0.5205 -0.5465,1.8641 -0.5017,2.5952 -0.129,0.3614 0.0286,0.8197 0.5014,0.9365 z m 70.5058,9.106 c -0.6999,0.4711 -1.6656,0.8909 -2.1651,0.9224 -0.792,0.0501 -0.8484,-0.0318 -0.449,-0.5516 0.5057,-0.6631 4.5672,-3.5983 5.0148,-3.6267 0.896,-0.057 -0.6956,2.0903 -2.4007,3.2559 z m -121.1539,1.4799 c 1.1288,-0.839 2.4931,-1.5397 2.9733,-1.5528 0.0689,-0.004 0.1205,-0.008 0.1497,0.0241 0.3784,0.3345 -0.6132,1.5228 -1.7759,2.1254 -1.4213,0.7385 -1.4585,0.7575 -2.0455,0.4536 -0.3198,-0.15 -0.1248,-0.4351 0.6984,-1.0503 z m 16.3942,0.057 c -7.871,5.9057 -12.6303,7.4078 -16.2258,7.6065 -2.5979,0.1437 -3.81,-0.5595 -3.7278,-2.1846 0.0428,-0.6512 0.2687,-1.501 0.4986,-1.9078 0.3872,-0.6726 0.5519,-0.3934 2.6416,-0.6794 1.2523,-0.165 2.4931,-0.4822 3.8171,-1.6067 2.2774,-1.9349 2.702,-3.8041 1.0083,-4.4807 -0.354,-0.1483 -0.7747,-0.1897 -1.2226,-0.161 -3.1547,0.2171 -8.1859,4.4251 -9.1233,8.0657 -0.6925,2.6529 0.879,4.4118 4.2588,4.7602 4.4354,0.4858 10.0188,-2.12 18.5437,-8.6474 l 0.1902,-0.1451 c -5.2076,7.2017 -13.1346,18.7367 -14.4471,21.0359 -0.3452,0.6185 -0.5513,1.3309 -0.4705,1.5984 0.2052,0.584 1.0471,0.5477 1.8552,-0.0836 0.3277,-0.2594 3.5618,-4.0805 7.1536,-8.4866 7.6991,-9.4247 7.9384,-9.6616 8.5008,-9.1857 0.8521,0.7132 3.5651,-0.1069 6.6404,-2.0081 0.6574,-0.4164 1.9556,-0.8875 2.8857,-1.0698 5.2917,-1.0389 13.1176,-5.752 17.8804,-8.647 -1.1192,1.7424 -3.4283,5.7968 -3.5745,6.8057 -0.1225,0.8433 0.0856,1.2903 0.8668,1.9063 0.8277,0.6463 1.3221,0.7681 2.7346,0.6783 2.124,-0.169 3.892,-0.8269 8.5575,-3.221 2.5877,-1.3337 5.7146,-3.1686 8.4121,-4.9493 -1.5398,2.1413 -2.9656,4.4561 -3.3205,5.6151 -0.2475,0.7662 -0.1772,1.2218 0.2013,1.5557 0.3044,0.254 0.8725,0.4567 1.2514,0.4323 0.7407,-0.0471 4.942,-2.8888 8.0796,-5.4584 3.1352,-2.5526 8.6094,-5.8164 9.0811,-5.4201 0.0907,0.0799 -0.4014,1.2361 -1.0882,2.5591 -1.8553,3.6136 -2.2031,4.8141 -1.6705,5.8697 2.1575,4.2786 14.1027,-5.2515 16.9779,-7.1484 -0.4156,0.8949 -1.8448,2.4786 -2.3168,3.8727 -0.3209,0.9481 0.0836,1.9102 0.4445,2.1172 1.7152,0.9841 5.2959,-0.5066 10.5599,-4.4394 l 2.7159,-2.0146 -0.2498,1.7212 c -0.227,1.5665 -0.1528,1.8267 0.8408,2.6751 1.8312,1.5636 4.2514,0.5678 9.2154,-2.2589 2.7187,-1.5489 7.0166,-5.5095 9.4003,-7.6669 0.8175,-0.7401 1.5522,-0.0354 1.5848,-0.2591 0.1647,-1.1358 -0.1973,-1.0148 -2.3386,0.4513 -1.2004,1.7869 -14.9935,10.9803 -16.3182,8.2712 -0.4376,-0.8949 0.2268,-2.7425 1.9449,-5.29 1.1724,-1.7292 1.3405,-2.1833 1.0165,-2.5376 -0.5621,-0.595 -1.0199,-0.498 -2.3236,0.4887 l -1.114,0.8552 -0.394,-1.0494 c -0.4578,-1.1987 -1.4752,-1.7141 -2.9299,-1.5704 -1.1245,0.1055 -2.5305,0.6214 -4.1148,1.5407 -1.6302,0.9411 -3.166,2.1807 -4.456,3.4954 -7.8857,5.5941 -13.8124,8.827 -15.6201,8.3987 -0.6933,-0.1613 -0.2194,-2.135 1.1342,-4.6431 1.5242,-2.859 1.8051,-4.3265 0.9283,-4.987 -1.5993,-1.2115 -5.7177,0.8235 -13.3622,6.5786 -3.2556,2.4407 -4.5564,3.2911 -4.2897,2.7451 0.4768,-0.934 3.549,-5.1707 5.1083,-7.0945 1.0948,-1.3142 1.1299,-1.4361 0.6288,-1.8644 -0.3929,-0.3504 -0.6954,-0.3824 -1.1761,-0.1298 -0.2594,0.1414 -0.6112,0.4473 -1.0205,0.8677 -0.824,0.3155 -2.0503,1.0216 -3.7687,2.1478 v 0 c -7.3207,4.8141 -13.5374,7.7833 -15.7941,7.9265 -2.429,0.1548 -1.9794,-1.6478 1.6351,-6.4474 1.9221,-2.5435 2.2456,-3.1269 1.9043,-3.4801 -0.2651,-0.2903 -0.5355,-0.4266 -0.8481,-0.3898 -0.2347,0.0326 -0.5001,0.1673 -0.8195,0.4204 -0.4941,0.2449 -1.1994,0.7126 -2.2805,1.4772 -2.4605,1.741 -4.6655,2.8726 -6.554,3.8174 -2.4446,1.2228 -4.4909,2.0809 -7.2122,2.8374 l -2.7031,0.7518 1.6988,-1.8301 c 4.0643,-4.3681 4.5612,-7.7932 1.0644,-7.5713 -2.8423,0.1809 -8.1734,4.3393 -13.7548,10.6965 -1.4108,1.6076 -2.6243,2.9124 -2.6932,2.9166 -0.0862,0.006 0.5457,-0.9383 1.3972,-2.1007 5.2412,-7.1884 7.6997,-10.8406 7.5674,-11.2241 -0.0706,-0.2174 -0.3929,-0.3507 -0.8085,-0.307 v 0 c -0.0689,0.005 -0.121,0.008 -0.1896,0.0122 -0.6202,0.1165 -1.6101,1.2373 -5.0185,5.8391 -0.9068,1.3507 -2.2895,2.3873 -3.4866,3.2357 z m 9.1154,1.3057 c -0.4649,0.0294 -1.5628,0.3038 -2.4248,0.5975 l -1.5979,0.5445 0.5278,-0.6981 c 2.0234,-2.6524 7.8727,-7.56 10.0647,-8.6715 0.9754,-0.4881 1.3374,-0.6307 1.3754,0.049 0.0771,1.9392 -6.1877,8.0669 -7.9452,8.1786 z m 101.5273,-9.8663 c -0.8484,0.2273 -0.9408,0.2469 -1.1358,-1.7016 -0.2126,-1.9477 0.2852,-3.2582 1.4797,-3.9651 1.0446,-0.6123 1.1372,-1.2493 0.2004,-1.6161 -0.1942,-0.0725 -0.3935,-0.1114 -0.6199,-0.0796 -0.9842,0.0796 -2.1773,1.008 -2.9379,2.3695 -0.6449,1.1491 -0.6851,1.544 -0.4263,3.8806 l 0.2894,2.5911 -0.9456,0.5205 c -1.8207,1.0193 -4.9156,3.1768 -5.7762,4.0504 -1.1367,1.1296 -1.4309,2.9214 -0.5655,3.4291 0.9434,0.5541 3.0626,0.3002 5.0329,-0.5752 2.2093,-0.993 4.0269,-3.0526 4.6766,-5.294 l 0.4581,-1.6319 c 1.7932,-0.7707 17.9158,-7.3732 18.2157,-8.2681 0.1715,-0.5122 -16.3771,5.8692 -17.9456,6.2904 z m -25.3834,1.3224 c -1.5057,1.0848 -3.787,2.5767 -5.0757,3.3406 -2.8896,1.6843 -3.5368,1.7938 -3.0373,0.4657 1.1529,-3.0058 7.4925,-8.2346 9.7197,-8.291 0.2237,-0.0145 0.4204,0.0414 0.5409,0.153 0.1666,0.1432 0.3722,0.7268 0.4425,1.302 0.1406,1.0315 0.0618,1.1047 -2.5901,3.0297 z m -84.7655,-25.589 c 1.9434,-2.4896 2.1509,-3.4738 0.718,-3.325 -0.5352,0.0598 -1.4578,0.9697 -3.2267,3.1615 -2.0327,2.5038 -6.6815,8.4322 -10.1293,12.9033 -0.4153,0.0694 -0.8603,0.1531 -1.3357,0.2588 -1.8278,0.4065 -4.1825,0.6639 -6.6141,1.2234 -2.4309,0.5593 -5.148,1.3485 -8.0863,2.1113 -2.9376,0.7619 -5.9205,1.5298 -9.1378,2.495 -0.6486,-1.7787 -1.1591,-3.0637 -1.8522,-4.6905 -0.693,-1.6262 -1.3331,-3.1637 -1.9207,-4.6125 -0.5868,-1.4485 -1.0437,-2.8208 -1.3703,-4.1173 -0.326,-1.296 -0.4215,-2.5033 -0.2866,-3.6216 0.4298,-3.558 1.7578,-6.76 3.9821,-9.6066 2.2241,-2.846 5.0466,-4.856 8.2083,-6.838 3.1612,-1.9817 6.2221,-3.204 9.8561,-4.2701 3.6354,-1.0664 6.4074,-2.0211 9.6216,-1.7793 11.1657,0.843 0.6676,11.9492 -5.5083,15.2118 -1.9343,1.0216 -4.4277,2.0807 -5.756,2.7964 -3.3724,1.817 -1.9437,3.9739 2.8193,2.2541 1.6609,-0.5995 3.9297,-1.5165 6.2652,-3.2961 2.9826,-2.2731 5.8419,-4.9564 7.9146,-8.0819 0.9947,-1.4992 1.5931,-3.0877 1.7957,-4.765 0.2152,-1.7793 -0.2897,-3.1768 -1.5137,-4.1936 -1.2242,-1.0165 -2.9797,-1.5244 -5.267,-1.5244 -1.4746,0 -3.3568,0.2284 -5.6492,0.6857 -2.2915,0.4577 -4.7239,1.1313 -7.2964,2.0208 -2.5727,0.8895 -5.1763,2.0333 -7.8103,3.4307 -2.6342,1.3978 -5.0541,3.0243 -7.2609,4.8799 -2.2065,1.8553 -4.0626,3.9645 -5.5681,6.328 -1.5055,2.3636 -2.4335,4.9944 -2.7836,7.8914 -0.178,1.474 -0.1245,2.9225 0.1613,4.3461 0.2854,1.4233 0.7103,2.846 1.2758,4.2695 0.565,1.4233 1.1906,2.8721 1.8766,4.3458 0.686,1.4738 1.241,2.7834 1.8572,4.4102 -3.4897,1.118 -6.921,2.5792 -10.4862,3.9004 -3.5651,1.3216 -7.0044,2.7579 -10.3178,4.3079 -3.3134,1.5505 -6.4358,3.2023 -9.3668,4.9561 -2.9313,1.7538 -5.5318,3.6087 -7.8015,5.5655 -2.2697,1.957 -4.1083,4.0283 -5.5159,6.2141 -1.4077,2.1855 -2.2561,4.4728 -2.5447,6.8621 -0.1658,1.3723 -0.002,2.5413 0.4912,3.507 0.493,0.9658 1.2603,1.7663 2.3018,2.4018 1.0414,0.6356 2.3065,1.1058 3.7944,1.4106 1.4882,0.305 3.1213,0.4572 4.9008,0.4572 2.4903,0 5.1928,-0.2795 8.1069,-0.8382 2.914,-0.5593 5.8458,-1.3726 8.7961,-2.4401 2.9495,-1.0675 5.8003,-2.3635 8.5519,-3.8885 2.7507,-1.5248 5.2327,-3.2403 7.4455,-5.1461 2.2127,-1.9063 4.0544,-4.0033 5.5253,-6.2906 1.4709,-2.287 2.3626,-4.7273 2.6761,-7.3193 0.2946,-2.4395 0.2481,-4.7906 -0.1389,-7.0529 -0.3874,-2.2618 -0.839,-4.2993 -1.5463,-6.4341 5.2164,-1.525 10.164,-3.0453 15.035,-4.2398 1.5673,-0.3844 3.0847,-0.7489 4.5524,-1.0936 1.09,-0.1899 2.3675,-0.3946 3.5417,-0.6026 -0.8133,1.0627 -1.5016,1.9706 -1.99,2.6294 -1.2702,1.6996 -3.6263,4.9201 -5.2611,7.1569 -1.6163,2.2212 -5.0009,6.8729 -7.5112,10.332 -3.1507,4.3132 -4.7829,6.0607 -6.6762,9.1094 -6.3572,10.2342 3.894,11.4494 7.1082,5.7283 0.883,-1.5721 0.6664,-2.7122 0.6372,-2.9617 -0.055,-0.4691 -0.8356,1.2339 -2.12,2.2343 -4.5544,3.5478 -6.2456,0.5437 -4.0499,-2.8236 2.3825,-3.655 6.1413,-9.1114 18.0451,-25.1975 1.2557,-1.6968 2.9044,-3.9356 3.6624,-4.9498 l 1.383,-1.8678 c 11.7088,-2.2271 25.8415,-4.7486 25.8415,-4.7486 -7.6901,0.6883 -16.0623,1.7811 -24.0633,3.0615 -0.0579,-0.006 -0.1205,-0.009 -0.188,-0.009 -0.1684,0 -0.2851,0.009 -0.3512,0.0261 10.7924,-14.5415 2.7369,-3.3358 9.5539,-12.2582 z"
     style="fill:url(#grad2)"
     id="path244"
     sodipodi:nodetypes="ssccccscsccsscccccccccscccccccccccccccccccccccccccccccccccccccccccccccsccccsccccscccccccccccccccccsscccccccccccccccssccccscccccccccccccccccccccccccccccccccscccccccscccscccccscscsscccsccccccscccsccccccccsccccccccccsccccsccc" />
</svg>
