<svg width="228" height="86" viewBox="0 0 228 86" fill="none" xmlns="http://www.w3.org/2000/svg">
<path d="M50.8554 60.232C50.5769 62.5188 49.774 64.7128 48.4462 66.8137C47.1184 68.9145 45.4593 70.8688 43.4707 72.6772C41.4814 74.4859 39.2309 76.1347 36.7175 77.6237C34.2051 79.1128 31.5523 80.0849 28.9083 81.1215C26.2634 82.1581 23.6638 82.5861 21.024 83.1434C16.4458 84.1109 5.74898 84.8441 3.66251 80.0172C3.20285 78.9539 3.06352 77.6767 3.2449 76.1875C3.64013 72.9433 5.20462 69.885 7.93951 67.0133C10.6748 64.1413 14.2206 61.643 18.4405 59.1169C28.4384 53.1335 38.3745 49.6366 49.2222 46.2548C49.941 48.2761 50.4083 50.1536 50.793 52.4935C51.1777 54.833 51.1987 57.4132 50.8554 60.232ZM128.521 46.5526C128.98 46.734 129.551 46.8735 129.908 47.2225C130.187 47.4954 130.501 47.5458 130.766 47.4669C130.892 47.4901 131.01 47.4358 131.139 47.2715L133.414 44.3802C133.688 44.0328 132.32 43.789 131.592 43.9323L131.872 40.7777C131.967 39.7179 129.435 42.3274 129.039 42.9945L127.808 41.5064C127.693 41.3671 127.457 42.1774 127.361 42.5816C127.232 43.1262 126.785 44.532 126.832 45.297C126.696 45.6752 126.862 46.1547 127.361 46.2769L128.521 46.5526ZM202.871 56.0806C202.133 56.5735 201.115 57.0128 200.588 57.0457C199.753 57.0981 199.693 57.0124 200.114 56.4685C200.648 55.7747 204.931 52.7035 205.403 52.6738C206.347 52.6141 204.669 54.861 202.871 56.0806ZM75.112 57.6291C76.3024 56.7512 77.7411 56.018 78.2474 56.0043C78.3201 56.0001 78.3745 55.9959 78.4053 56.0295C78.8043 56.3795 77.7587 57.6229 76.5326 58.2534C75.0338 59.0261 74.9946 59.046 74.3756 58.7281C74.0383 58.5711 74.244 58.2728 75.112 57.6291ZM92.4 57.6887C84.0999 63.8681 79.0812 65.4398 75.2896 65.6477C72.5501 65.7981 71.2719 65.0623 71.3586 63.3619C71.4037 62.6805 71.642 61.7913 71.8844 61.3657C72.2927 60.6619 72.4664 60.954 74.67 60.6548C75.9906 60.4821 77.299 60.1502 78.6952 58.9736C81.0968 56.949 81.5445 54.9932 79.7585 54.2853C79.3852 54.1301 78.9415 54.0868 78.4692 54.1168C75.1425 54.344 69.837 58.747 68.8485 62.5563C68.1183 65.3322 69.7755 67.1726 73.3395 67.5371C78.0167 68.0454 83.9045 65.3189 92.8942 58.4889L93.0947 58.3371C87.6032 65.8726 79.2441 77.9422 77.86 80.348C77.496 80.9951 77.2787 81.7405 77.3639 82.0204C77.5803 82.6315 78.468 82.5935 79.3202 81.933C79.6658 81.6615 83.0762 77.6633 86.8638 73.053C94.9827 63.1915 95.235 62.9437 95.828 63.4416C96.7266 64.1879 99.5875 63.3297 102.83 61.3404C103.524 60.9047 104.893 60.4118 105.873 60.2211C111.454 59.134 119.706 54.2025 124.729 51.1733C123.548 52.9965 121.113 57.2388 120.959 58.2944C120.83 59.1768 121.05 59.6445 121.873 60.2891C122.746 60.9653 123.268 61.0928 124.757 60.9988C126.997 60.822 128.861 60.1336 133.781 57.6285C136.51 56.233 139.807 54.3131 142.652 52.4499C141.028 54.6904 139.524 57.1125 139.15 58.3252C138.889 59.1269 138.963 59.6036 139.363 59.953C139.684 60.2188 140.283 60.4309 140.682 60.4053C141.463 60.3561 145.894 57.3827 149.202 54.694C152.508 52.0231 158.281 48.608 158.778 49.0227C158.874 49.1063 158.355 50.3161 157.631 51.7004C155.674 55.4814 155.308 56.7376 155.869 57.8421C158.144 62.319 170.741 52.3472 173.773 50.3624C173.335 51.2988 171.827 52.9559 171.33 54.4146C170.991 55.4066 171.418 56.4133 171.798 56.6299C173.607 57.6596 177.383 56.0998 182.934 51.9848L185.798 49.8768L185.535 51.6778C185.295 53.3169 185.373 53.5891 186.421 54.4768C188.352 56.1129 190.904 55.071 196.139 52.1133C199.006 50.4926 203.538 46.3484 206.052 44.091C206.914 43.3166 207.689 44.054 207.723 43.8199C207.897 42.6315 207.515 42.7581 205.257 44.2921C203.991 46.1618 189.446 55.7813 188.049 52.9467C187.588 52.0103 188.288 50.0771 190.1 47.4115C191.336 45.6022 191.514 45.127 191.172 44.7563C190.579 44.1337 190.096 44.2352 188.722 45.2676L187.547 46.1625L187.131 45.0644C186.649 43.8102 185.576 43.2709 184.042 43.4213C182.856 43.5316 181.373 44.0715 179.703 45.0334C177.984 46.0181 176.364 47.3151 175.004 48.6908C166.688 54.5441 160.438 57.9269 158.532 57.4787C157.801 57.3099 158.301 55.2447 159.728 52.6204C161.335 49.6289 161.632 48.0934 160.707 47.4023C159.021 46.1346 154.678 48.264 146.616 54.2858C143.183 56.8396 141.812 57.7294 142.093 57.1581C142.596 56.1808 145.835 51.7478 147.48 49.7348C148.634 48.3597 148.671 48.2321 148.143 47.784C147.728 47.4174 147.409 47.3839 146.902 47.6482C146.629 47.7961 146.258 48.1162 145.826 48.5561C144.957 48.8862 143.664 49.625 141.852 50.8034C134.132 55.8407 127.577 58.9474 125.197 59.0973C122.636 59.2593 123.11 57.3731 126.921 52.3511C128.948 49.6897 129.289 49.0793 128.929 48.7097C128.65 48.4059 128.365 48.2633 128.035 48.3018C127.788 48.3359 127.508 48.4769 127.171 48.7417C126.65 48.998 125.906 49.4874 124.766 50.2874C122.171 52.1091 119.846 53.2931 117.855 54.2817C115.277 55.5612 113.119 56.459 110.249 57.2506L107.399 58.0372L109.19 56.1223C113.476 51.5518 114 47.9679 110.313 48.2001C107.315 48.3894 101.694 52.7405 95.808 59.3924C94.3203 61.0745 93.0406 62.4397 92.968 62.4441C92.8771 62.4504 93.5434 61.4623 94.4414 60.2461C99.9683 52.7245 102.561 48.9031 102.421 48.5018C102.347 48.2743 102.007 48.1348 101.569 48.1805C101.496 48.1858 101.441 48.1889 101.369 48.1933C100.715 48.3152 99.6709 49.488 96.0767 54.3031C95.1204 55.7164 93.6624 56.801 92.4 57.6887ZM102.012 59.0549C101.522 59.0857 100.364 59.3728 99.4554 59.6801L97.7704 60.2498L98.3269 59.5194C100.461 56.7441 106.629 51.609 108.94 50.446C109.969 49.9353 110.351 49.7861 110.391 50.4973C110.472 52.5264 103.866 58.938 102.012 59.0549ZM209.075 48.7313C208.18 48.9692 208.083 48.9897 207.877 46.9509C207.653 44.9129 208.178 43.5417 209.437 42.802C210.539 42.1614 210.636 41.4948 209.649 41.111C209.444 41.0352 209.234 40.9945 208.995 41.0277C207.957 41.111 206.699 42.0825 205.897 43.5071C205.217 44.7094 205.174 45.1226 205.447 47.5675L205.753 50.2787L204.755 50.8233C202.835 51.8898 199.572 54.1473 198.664 55.0614C197.466 56.2434 197.155 58.1182 198.068 58.6495C199.063 59.2292 201.297 58.9636 203.375 58.0476C205.705 57.0086 207.622 54.8535 208.307 52.5083L208.79 50.8007C210.681 49.9943 227.682 43.0858 227.999 42.1494C228.179 41.6135 210.729 48.2906 209.075 48.7313ZM182.307 50.1151C180.72 51.2501 178.314 52.8112 176.955 53.6105C173.908 55.3728 173.225 55.4874 173.752 54.0978C174.968 50.9527 181.653 45.4815 184.002 45.4225C184.238 45.4073 184.445 45.4658 184.572 45.5826C184.748 45.7324 184.965 46.3431 185.039 46.9449C185.187 48.0243 185.104 48.1008 182.307 50.1151ZM92.9207 23.3401C94.9701 20.7351 95.1889 19.7053 93.6779 19.861C93.1135 19.9236 92.1406 20.8757 90.2753 23.169C88.1317 25.7889 83.2295 31.992 79.5937 36.6703C79.1558 36.743 78.6865 36.8305 78.1852 36.9411C76.2578 37.3665 73.7747 37.6358 71.2105 38.2212C68.6471 38.8065 65.7819 39.6322 62.6834 40.4304C59.5856 41.2276 56.4401 42.0311 53.0474 43.041C52.3635 41.1799 51.8251 39.8353 51.0943 38.1331C50.3635 36.4316 49.6885 34.8228 49.0689 33.3069C48.4501 31.7912 47.9683 30.3553 47.6239 28.9987C47.2801 27.6427 47.1794 26.3794 47.3216 25.2093C47.7748 21.4864 49.1753 18.136 51.5208 15.1575C53.8662 12.1796 56.8425 10.0764 60.1766 8.00256C63.5101 5.92902 66.7379 4.65007 70.57 3.53456C74.4036 2.41874 77.3268 1.4198 80.7162 1.6728C92.4906 2.55487 81.4202 14.1758 74.9076 17.5896C72.8678 18.6585 70.2385 19.7667 68.8378 20.5156C65.2815 22.4168 66.7881 24.6737 71.8108 22.8742C73.5622 22.2469 75.9547 21.2874 78.4175 19.4253C81.5627 17.0469 84.5779 14.2392 86.7636 10.9688C87.8126 9.40016 88.4436 7.73804 88.6572 5.98301C88.8842 4.12124 88.3517 2.65897 87.061 1.59505C85.7701 0.531438 83.9189 0 81.5069 0C79.9519 0 77.9671 0.238985 75.5497 0.717479C73.1333 1.19639 70.5683 1.90121 67.8555 2.83193C65.1426 3.76266 62.397 4.95948 59.6194 6.42164C56.8416 7.88422 54.2898 9.5861 51.9627 11.5277C49.6359 13.469 47.6786 15.6759 46.091 18.149C44.5034 20.6221 43.5248 23.3748 43.1556 26.4061C42.9679 27.9484 43.0244 29.464 43.3258 30.9536C43.6267 32.4429 44.0748 33.9315 44.6711 35.421C45.2669 36.9103 45.9266 38.4262 46.65 39.9682C47.3734 41.5103 47.9587 42.8806 48.6084 44.5828C44.9285 45.7526 41.3101 47.2815 37.5506 48.664C33.7911 50.0468 30.1643 51.5497 26.6703 53.1715C23.1762 54.7939 19.8836 56.5222 16.7928 58.3573C13.7017 60.1924 10.9595 62.1333 8.56601 64.1807C6.17258 66.2284 4.23374 68.3958 2.7494 70.6829C1.26496 72.9697 0.370298 75.3629 0.065964 77.863C-0.108875 79.2989 0.0638665 80.522 0.583954 81.5325C1.10383 82.5431 1.91295 83.3807 3.01123 84.0456C4.1094 84.7107 5.44348 85.2027 7.01249 85.5216C8.58183 85.8407 10.3039 86 12.1805 86C14.8065 86 17.6564 85.7076 20.7293 85.123C23.8022 84.5377 26.8938 83.6867 30.005 82.5697C33.1153 81.4528 36.1215 80.0967 39.0231 78.501C41.9238 76.9056 44.5411 75.1106 46.8745 73.1165C49.2078 71.1218 51.1499 68.9276 52.701 66.5343C54.2521 64.1413 55.1924 61.5879 55.523 58.8758C55.8337 56.3232 55.7847 53.8632 55.3766 51.496C54.968 49.1294 54.4918 46.9974 53.746 44.7637C59.2468 43.168 64.4641 41.5773 69.6006 40.3274C71.2533 39.9252 72.8535 39.5438 74.4012 39.1831C75.5506 38.9844 76.8978 38.7702 78.136 38.5526C77.2784 39.6646 76.5525 40.6145 76.0375 41.3039C74.6981 43.0822 72.2135 46.452 70.4896 48.7925C68.7852 51.1166 65.216 55.9839 62.5689 59.6033C59.2464 64.1164 57.5252 65.9449 55.5287 69.1349C48.8249 79.8434 59.635 81.1149 63.0245 75.1287C63.9556 73.4837 63.7272 72.2908 63.6964 72.0297C63.6384 71.5389 62.8152 73.3208 61.4608 74.3675C56.6581 78.0798 54.8747 74.9365 57.1901 71.4131C59.7025 67.5887 63.6662 61.8794 76.219 45.0478C77.5431 43.2724 79.2817 40.9298 80.081 39.8686L81.5395 37.9142C93.8866 35.5839 108.79 32.9456 108.79 32.9456C100.68 33.6658 91.8518 34.8092 83.4146 36.1489C83.3535 36.1427 83.2875 36.1395 83.2163 36.1395C83.0387 36.1395 82.9157 36.1489 82.846 36.1668C94.2268 20.9514 85.7321 32.676 92.9207 23.3401Z" fill="url(#paint0_linear_32_2)"/>
<defs>
<linearGradient id="paint0_linear_32_2" x1="-6.79493e-06" y1="4.77635e-08" x2="-6.79493e-06" y2="86" gradientUnits="userSpaceOnUse">
<stop stop-color="white"/>
<stop offset="1" stop-color="#868789"/>
</linearGradient>
</defs>
</svg>
